<?xml version="1.0" encoding="UTF-8" standalone="no"?>
<svg width="50px" height="51px" viewBox="0 0 50 51" version="1.1" xmlns="http://www.w3.org/2000/svg" xmlns:xlink="http://www.w3.org/1999/xlink" xmlns:sketch="http://www.bohemiancoding.com/sketch/ns">
    <!-- Generator: Sketch 3.2.2 (9983) - http://www.bohemiancoding.com/sketch -->
    <title>Fill 15</title>
    <desc>Created with Sketch.</desc>
    <defs></defs>
    <g id="Page-1" stroke="none" stroke-width="1" fill="none" fill-rule="evenodd" sketch:type="MSPage">
        <path d="M2.75972019,0 C1.23513918,0 0,1.25983724 0,2.81471296 L0,48.185287 C0,49.7397806 1.23513918,51 2.75972019,51 L26.7065828,51 L26.7065828,31.250193 L20.1906757,31.250193 L20.1906757,23.5532046 L26.7065828,23.5532046 L26.7065828,17.8769624 C26.7065828,11.2896169 30.6508601,7.70272093 36.4121577,7.70272093 C39.1716905,7.70272093 41.5434275,7.91234348 42.2349031,8.00597616 L42.2349031,14.89008 L38.2389197,14.8919908 C35.1058289,14.8919908 34.4992188,16.41056 34.4992188,18.6390177 L34.4992188,23.5532046 L41.9715017,23.5532046 L40.9984526,31.250193 L34.4992188,31.250193 L34.4992188,51 L47.2404672,51 C48.7644861,51 50,49.7397806 50,48.185287 L50,2.81471296 C50,1.25983724 48.7644861,0 47.2404672,0 L2.75972019,0 Z" id="Fill-15" fill="#000000" sketch:type="MSShapeGroup"></path>
    </g>
</svg>