<?xml version="1.0" encoding="UTF-8" standalone="no"?>
<svg width="50px" height="51px" viewBox="0 0 50 51" version="1.1" xmlns="http://www.w3.org/2000/svg" xmlns:xlink="http://www.w3.org/1999/xlink" xmlns:sketch="http://www.bohemiancoding.com/sketch/ns">
    <!-- Generator: Sketch 3.2.2 (9983) - http://www.bohemiancoding.com/sketch -->
    <title>instagram-glyph-2</title>
    <desc>Created with Sketch.</desc>
    <defs>
        <path id="path-1" d="M0,0.270756531 L50,0.270756531 L50,50.2707565 L0,50.2707565 L0,0.270756531 Z"></path>
    </defs>
    <g id="Page-1" stroke="none" stroke-width="1" fill="none" fill-rule="evenodd" sketch:type="MSPage">
        <g id="instagram-glyph-2" sketch:type="MSLayerGroup">
            <mask id="mask-2" sketch:name="Clip 2" fill="white">
                <use xlink:href="#path-1"></use>
            </mask>
            <g id="Clip-2"></g>
            <path d="M44.1568183,50.1850758 L5.75833877,50.1850758 C2.57849294,50.1850758 0.000132291465,47.6058332 0.000132291465,44.4237825 L0.000132291465,6.02883072 C0.000132291465,2.84854391 2.57849294,0.270624239 5.75833877,0.270624239 L44.1568183,0.270624239 C47.3371051,0.270624239 49.9150248,2.84854391 49.9150248,6.02883072 L49.9150248,44.4237825 C49.9150248,47.6058332 47.3371051,50.1850758 44.1568183,50.1850758 L44.1568183,50.1850758 Z M24.9573581,15.6283404 C19.6555571,15.6283404 15.3582894,19.9251671 15.3582894,25.2269681 C15.3582894,30.527887 19.6555571,34.8269187 24.9573581,34.8269187 C30.259159,34.8269187 34.5573087,30.527887 34.5573087,25.2269681 C34.5573087,19.9251671 30.259159,15.6283404 24.9573581,15.6283404 L24.9573581,15.6283404 Z M44.1568183,7.94837987 C44.1568183,6.88872524 43.2969238,6.02883072 42.2350643,6.02883072 L36.4768578,6.02883072 C35.4163212,6.02883072 34.5573087,6.88872524 34.5573087,7.94837987 L34.5573087,13.7087912 C34.5573087,14.7684458 35.4163212,15.6283404 36.4768578,15.6283404 L42.2350643,15.6283404 C43.2969238,15.6283404 44.1568183,14.7684458 44.1568183,13.7087912 L44.1568183,7.94837987 Z M44.1568183,21.3861059 L39.8114847,21.3861059 C40.1281022,22.6150936 40.3150742,23.8992027 40.3150742,25.2269681 C40.3150742,33.7103787 33.4394458,40.5855661 24.9573581,40.5855661 C16.4757113,40.5855661 9.59964193,33.7103787 9.59964193,25.2269681 C9.59964193,23.8992027 9.78749581,22.6150936 10.1041134,21.3861059 L5.75833877,21.3861059 L5.75833877,42.5055562 C5.75833877,43.5643289 6.61823329,44.4237825 7.68009278,44.4237825 L42.2350643,44.4237825 C43.2969238,44.4237825 44.1568183,43.5643289 44.1568183,42.5055562 L44.1568183,21.3861059 Z" id="Fill-1" fill="#231F1F" sketch:type="MSShapeGroup" mask="url(#mask-2)"></path>
        </g>
    </g>
</svg>