<?xml version="1.0" encoding="UTF-8" standalone="no"?>
<svg width="50px" height="41px" viewBox="0 0 50 41" version="1.1" xmlns="http://www.w3.org/2000/svg" xmlns:xlink="http://www.w3.org/1999/xlink" xmlns:sketch="http://www.bohemiancoding.com/sketch/ns">
    <!-- Generator: Sketch 3.2.2 (9983) - http://www.bohemiancoding.com/sketch -->
    <title>Twitter_logo_white</title>
    <desc>Created with Sketch.</desc>
    <defs>
        <path id="path-1" d="M0.0109489051,0.151130045 L49.8886861,0.151130045 L49.8886861,40.9889686 L0.0109489051,40.9889686"></path>
    </defs>
    <g id="Page-1" stroke="none" stroke-width="1" fill="none" fill-rule="evenodd" sketch:type="MSPage">
        <g id="Twitter_logo_white" sketch:type="MSLayerGroup">
            <mask id="mask-2" sketch:name="Clip 2" fill="white">
                <use xlink:href="#path-1"></use>
            </mask>
            <g id="Clip-2"></g>
            <path d="M15.689781,41 C9.90967153,41 4.52956204,39.2928924 0,36.367 C0.800729927,36.4622377 1.61551095,36.5109596 2.44160584,36.5109596 C7.23686131,36.5109596 11.6501825,34.8623184 15.1531022,32.096565 C10.6742701,32.013278 6.89434307,29.031861 5.5919708,24.9348027 C6.21678832,25.0552287 6.8580292,25.1197623 7.51751825,25.1197623 C8.45109489,25.1197623 9.35529197,24.9938206 10.2142336,24.7581166 C5.53175182,23.8108879 2.00383212,19.642861 2.00383212,14.6463767 C2.00383212,14.6029865 2.00383212,14.5597803 2.00456204,14.5167578 C3.38467153,15.289139 4.96277372,15.753009 6.64069343,15.8065112 C3.89434307,13.9572825 2.08722628,10.8008341 2.08722628,7.2231704 C2.08722628,5.33330942 2.5919708,3.56185202 3.4729927,2.03878475 C8.52116788,8.2777713 16.0629562,12.383287 24.5695255,12.8133274 C24.395073,12.0585964 24.3043796,11.2715067 24.3043796,10.4632735 C24.3043796,4.76831839 28.8872263,0.151130045 34.5399635,0.151130045 C37.4837591,0.151130045 40.1437956,1.40356054 42.0109489,3.40778027 C44.3423358,2.94519731 46.5328467,2.08695516 48.5104015,0.905309417 C47.7461679,3.31327803 46.1233577,5.3342287 44.0100365,6.61056054 C46.0804745,6.36125112 48.0531022,5.80692377 49.8886861,4.98673991 C48.5164234,7.05475785 46.7810219,8.87107623 44.7813869,10.3250135 C44.8010949,10.7671883 44.8109489,11.2119372 44.8109489,11.6590762 C44.8109489,25.2863363 34.5160584,41 15.689781,41" id="Fill-1" fill="#000000" sketch:type="MSShapeGroup" mask="url(#mask-2)"></path>
        </g>
    </g>
</svg>